<?xml version="1.0" encoding="UTF-8"?>
<svg version="1.1" xmlns="http://www.w3.org/2000/svg" width="55" height="51">
<path d="M0 0 C18.15 0 36.3 0 55 0 C55 16.83 55 33.66 55 51 C36.85 51 18.7 51 0 51 C0 34.17 0 17.34 0 0 Z " fill="#06060C" transform="translate(0,0)"/>
<path d="M0 0 C0.66 0 1.32 0 2 0 C4.17895249 3.21144074 5.96105105 6.24419955 7 10 C5.9751646 13.4998129 4.24037684 16.14610458 2 19 C1.34 19 0.68 19 0 19 C-2.17895249 15.78855926 -3.96105105 12.75580045 -5 9 C-3.9751646 5.5001871 -2.24037684 2.85389542 0 0 Z " fill="#2261C7" transform="translate(28,28)"/>
<path d="M0 0 C0.66 0 1.32 0 2 0 C4.17895249 3.21144074 5.96105105 6.24419955 7 10 C5.9751646 13.4998129 4.24037684 16.14610458 2 19 C1.34 19 0.68 19 0 19 C-2.17895249 15.78855926 -3.96105105 12.75580045 -5 9 C-3.9751646 5.5001871 -2.24037684 2.85389542 0 0 Z " fill="#2261C7" transform="translate(28,3)"/>
<path d="M0 0 C2.02237052 0.95394836 4.0282696 1.94535351 6 3 C6 3.66 6 4.32 6 5 C2.78855926 7.17895249 -0.24419955 8.96105105 -4 10 C-7.4998129 8.9751646 -10.14610458 7.24037684 -13 5 C-13 4.34 -13 3.68 -13 3 C-4.64192228 -1.83233774 -4.64192228 -1.83233774 0 0 Z " fill="#2261C7" transform="translate(45,21)"/>
<path d="M0 0 C2.02237052 0.95394836 4.0282696 1.94535351 6 3 C6 3.66 6 4.32 6 5 C2.78855926 7.17895249 -0.24419955 8.96105105 -4 10 C-7.4998129 8.9751646 -10.14610458 7.24037684 -13 5 C-13 4.34 -13 3.68 -13 3 C-4.64192228 -1.83233774 -4.64192228 -1.83233774 0 0 Z " fill="#2261C7" transform="translate(20,21)"/>
</svg>
